# xmcd CD database file
#
# Track frame offsets:
#	150
#	2640
#	26052
#	47955
#	70080
#	92025
#	112580
#	135797
#	153380
#	169690
#	184475
#	202120
#	219707
#
# Disc length: 3165 seconds
#
# Revision: 8
# Processed by: cddbd v1.5PL3 Copyright (c) Steve Scherf et al.
# Submitted via: CDex 1.40Release
#
DISCID=ad0c5b0d
DTITLE=The Gospellers - Vol.4
DYEAR=1998
DGENRE=Acapella
TTITLE0=イントロ'98
TTITLE1=或る晴れた日に
TTITLE2=靴は履いたまま
TTITLE3=八月の鯨
TTITLE4=Vol.-albunmix-
TTITLE5=in the Soup
TTITLE6=渇き
TTITLE7=夕焼けシャッフル
TTITLE8=未来
TTITLE9=傘をあげる
TTITLE10=BOO〜おなかが空くほど笑ってみたい〜
TTITLE11=終わらない世界
TTITLE12=五つの鍵の伝説
EXTD=ID3G: 123
EXTT0=
EXTT1=
EXTT2=
EXTT3=
EXTT4=
EXTT5=
EXTT6=
EXTT7=
EXTT8=
EXTT9=
EXTT10=
EXTT11=
EXTT12=
PLAYORDER=
